<svg xmlns="http://www.w3.org/2000/svg" xmlns:xlink="http://www.w3.org/1999/xlink" width="1640px" height="770px" viewBox="0 0 1640 770" preserveAspectRatio="xMidYMid meet"  ><rect id="svgEditorBackground" x="0" y="0" width="1640" height="770" style="fill: none; stroke: none;"/><defs id="svgEditorDefs"><polygon id="svgEditorShapeDefs" style="fill:khaki;stroke:black;vector-effect:non-scaling-stroke;stroke-width:1px;"/></defs><path d="M-300.01874828601467,44.95630794972154c-0.07399999999995543,0.09100000000000819,-0.13900000000001,0.1869999999999976,-0.20899999999994634,0.2790000000000106c-0.08700000000004593,0.11499999999999488,-0.17700000000002092,0.2289999999999992,-0.25700000000006185,0.34899999999998244c-0.07499999999998863,0.11299999999999955,-0.1409999999999627,0.2300000000000182,-0.20999999999997954,0.34499999999999886c-0.06499999999999773,0.10800000000000409,-0.13299999999998136,0.21399999999999864,-0.19300000000004047,0.32500000000001705c-0.06299999999998818,0.11899999999999977,-0.1169999999999618,0.24199999999999022,-0.17499999999995453,0.36299999999999244c-0.053999999999973625,0.1150000000000162,-0.11099999999999,0.22800000000001575,-0.16100000000000136,0.34600000000001074c-0.049000000000035016,0.11899999999999977,-0.08899999999999864,0.2400000000000091,-0.132000000000005,0.36099999999999c-0.04499999999995907,0.125,-0.09299999999996089,0.25,-0.1330000000000382,0.3779999999999859c-0.036999999999920874,0.1220000000000141,-0.06399999999996453,0.24500000000000455,-0.09399999999993724,0.3689999999999998c-0.03300000000001546,0.13000000000002387,-0.06900000000001683,0.2580000000000382,-0.09500000000002728,0.3900000000000148c-0.02800000000002001,0.14300000000000068,-0.04499999999995907,0.28700000000000614,-0.06600000000003092,0.43199999999998795c-0.016999999999939064,0.11400000000000432,-0.03799999999995407,0.22700000000000387,-0.049999999999954525,0.34200000000001296c-0.05200000000002092,0.5250000000000057,-0.05200000000002092,1.0550000000000068,0,1.5800000000000125c0.010999999999967258,0.11499999999998067,0.03300000000001546,0.22799999999998022,0.049999999999954525,0.34199999999998454c0.02100000000007185,0.14400000000000546,0.03700000000003456,0.2890000000000157,0.06600000000003092,0.43200000000001637c0.02600000000001046,0.132000000000005,0.06200000000001182,0.2599999999999909,0.09500000000002728,0.38999999999998636c0.03099999999994907,0.12300000000001887,0.057999999999992724,0.2470000000000141,0.09399999999993724,0.3689999999999998c0.03900000000004411,0.1290000000000191,0.08700000000004593,0.25200000000000955,0.1330000000000382,0.3780000000000143c0.04399999999998272,0.11999999999997613,0.08299999999996999,0.24199999999999022,0.132000000000005,0.36099999999999s0.10700000000002774,0.23099999999999454,0.16100000000000136,0.34600000000000364c0.05700000000001637,0.12199999999998568,0.11099999999999,0.242999999999995,0.17499999999995453,0.36299999999999955c0.05900000000002592,0.11099999999999,0.12800000000004275,0.21699999999998454,0.19300000000004047,0.32499999999998863c0.06900000000001683,0.1150000000000091,0.1339999999999577,0.23199999999999932,0.20999999999997954,0.34499999999999886c0.08000000000004093,0.12000000000000455,0.17000000000001592,0.23400000000000887,0.25700000000006185,0.34900000000001796c0.06999999999993634,0.09299999999998931,0.1339999999999577,0.18899999999999295,0.20899999999994634,0.27899999999999636c0.3350000000000364,0.40799999999998704,0.7090000000000032,0.7819999999999823,1.1170000000000186,1.1169999999999902c0.09099999999995134,0.07400000000001228,0.18500000000000227,0.13800000000000523,0.2769999999999868,0.20699999999999363c0.11599999999998545,0.08700000000001751,0.2300000000000182,0.17700000000002092,0.3509999999999991,0.2580000000000098c0.11299999999999955,0.0759999999999934,0.2300000000000182,0.14099999999999113,0.34600000000000364,0.20999999999997954c0.10900000000003729,0.06499999999999773,0.21399999999999864,0.132000000000005,0.3250000000000455,0.19200000000000728c0.11799999999993815,0.06299999999998818,0.23999999999995225,0.11699999999999022,0.36099999999999,0.1740000000000066c0.1150000000000091,0.05500000000000682,0.22999999999996135,0.11299999999999955,0.3489999999999327,0.16200000000000614c0.11700000000007549,0.049000000000006594,0.2370000000000232,0.08799999999999386,0.35599999999999454,0.13100000000000023c0.1270000000000664,0.044999999999987494,0.25300000000004275,0.09399999999999409,0.38200000000006185,0.13299999999998136c0.12000000000000455,0.03700000000000614,0.24099999999998545,0.0630000000000166,0.36199999999996635,0.09300000000001774c0.1309999999999718,0.03299999999998704,0.26200000000000045,0.06999999999999318,0.396000000000015,0.09699999999997999c0.13900000000001,0.02800000000002001,0.28000000000002956,0.043000000000006366,0.42099999999999227,0.06399999999999295c0.117999999999995,0.016999999999995907,0.2340000000000373,0.03900000000001569,0.35300000000000864,0.051000000000016144c0.26200000000000045,0.027999999999991587,0.5250000000000341,0.043000000000006366,0.7880000000000109,0.043000000000006366h8v46.22200000000001c0,5.4000000000000625,4.377999999999986,9.778000000000048,9.77800000000002,9.778000000000048h22.22199999999998v-48.00000000000006h32v48.00000000000006h22.22199999999998c5.400000000000006,0,9.77800000000002,-4.378000000000043,9.77800000000002,-9.778000000000077v-46.22199999999998h8c0.2629999999999768,0,0.525999999999982,-0.014000000000010004,0.7889999999999873,-0.040000000000020464c0.11899999999999977,-0.01099999999999568,0.23599999999999,-0.033999999999991815,0.35300000000000864,-0.05099999999998772c0.14099999999999113,-0.020000000000024443,0.2810000000000059,-0.03700000000000614,0.42099999999999227,-0.06399999999999295c0.13400000000001455,-0.027000000000015234,0.26499999999998636,-0.06399999999999295,0.39699999999999136,-0.09700000000000841c0.12100000000000932,-0.030000000000001137,0.24200000000001864,-0.05699999999998795,0.3620000000000232,-0.09299999999998931c0.12999999999999545,-0.03900000000001569,0.25499999999999545,-0.08799999999999386,0.382000000000005,-0.13300000000000978c0.11899999999997135,-0.043000000000006366,0.2389999999999759,-0.08199999999999363,0.35599999999999454,-0.13100000000000023c0.11899999999997135,-0.049000000000006594,0.2330000000000041,-0.10699999999999932,0.34899999999998954,-0.16200000000000614c0.1209999999999809,-0.05699999999998795,0.24200000000001864,-0.10999999999998522,0.36099999999999,-0.1740000000000066c0.11100000000001842,-0.0589999999999975,0.21700000000001296,-0.1279999999999859,0.32500000000001705,-0.19199999999997885c0.11499999999998067,-0.06900000000001683,0.2330000000000041,-0.13400000000001455,0.34600000000000364,-0.21000000000000796c0.12100000000000932,-0.08099999999998886,0.23499999999998522,-0.17099999999999227,0.3509999999999991,-0.25799999999998136c0.09299999999998931,-0.06900000000001683,0.1869999999999834,-0.13300000000000978,0.27700000000001523,-0.20699999999999363c0.40799999999998704,-0.33500000000000796,0.7819999999999823,-0.7090000000000032,1.1169999999999902,-1.1170000000000186c0.07399999999998386,-0.09099999999997976,0.13899999999998158,-0.1869999999999834,0.20900000000000318,-0.27899999999999636c0.08700000000001751,-0.11499999999998067,0.1769999999999925,-0.228999999999985,0.257000000000005,-0.34899999999998954c0.0759999999999934,-0.11299999999999955,0.14099999999999113,-0.2300000000000182,0.21000000000000796,-0.34499999999999886c0.06499999999999773,-0.10900000000000887,0.132000000000005,-0.21399999999999864,0.19299999999998363,-0.32500000000001705c0.06399999999999295,-0.12000000000000455,0.117999999999995,-0.242999999999995,0.17500000000001137,-0.3649999999999807c0.053999999999973625,-0.1150000000000091,0.11099999999999,-0.22700000000000387,0.15999999999996817,-0.3439999999999941c0.05000000000001137,-0.12000000000000455,0.09000000000003183,-0.24200000000001864,0.13300000000000978,-0.36299999999999955c0.04400000000001114,-0.12399999999999523,0.09299999999998931,-0.24799999999999045,0.13100000000000023,-0.3760000000000048c0.03700000000000614,-0.12199999999998568,0.06399999999999295,-0.24500000000000455,0.09499999999999886,-0.3689999999999998c0.03299999999998704,-0.12999999999999545,0.0689999999999884,-0.25799999999998136,0.09499999999999886,-0.38999999999998636c0.02800000000002001,-0.14300000000000068,0.045000000000015916,-0.28700000000000614,0.0660000000000025,-0.43200000000001637c0.016999999999995907,-0.11400000000000432,0.03799999999998249,-0.22700000000000387,0.04999999999998295,-0.34199999999998454c0.05300000000002569,-0.5250000000000057,0.05300000000002569,-1.0550000000000068,0,-1.5810000000000173c-0.010999999999967258,-0.1150000000000091,-0.03299999999998704,-0.22700000000000387,-0.04999999999998295,-0.34199999999998454c-0.020000000000010232,-0.14400000000000546,-0.03700000000000614,-0.2890000000000157,-0.0660000000000025,-0.43200000000001637c-0.02600000000001046,-0.13300000000000978,-0.06200000000001182,-0.2609999999999957,-0.09499999999999886,-0.38999999999998636c-0.03100000000000591,-0.12300000000001887,-0.058000000000021146,-0.2470000000000141,-0.09499999999999886,-0.3689999999999998c-0.038000000000010914,-0.12800000000001432,-0.08600000000001273,-0.2510000000000048,-0.13100000000000023,-0.3760000000000048c-0.043000000000006366,-0.1220000000000141,-0.08400000000000318,-0.242999999999995,-0.13300000000000978,-0.36299999999999955c-0.04899999999997817,-0.11699999999999022,-0.10599999999999454,-0.22999999999998977,-0.15999999999996817,-0.3439999999999941c-0.05700000000001637,-0.1220000000000141,-0.11100000000001842,-0.24500000000000455,-0.17500000000001137,-0.3640000000000043c-0.0589999999999975,-0.11099999999999,-0.1279999999999859,-0.21700000000001296,-0.19299999999998363,-0.32500000000001705c-0.06900000000001683,-0.11499999999998067,-0.13400000000001455,-0.23199999999999932,-0.21000000000000796,-0.34499999999999886c-0.0800000000000125,-0.11999999999998323,-0.1699999999999875,-0.23399999999998755,-0.257000000000005,-0.34899999999998244c-0.06999999999999318,-0.09299999999999642,-0.13399999999998613,-0.1880000000000024,-0.20900000000000318,-0.2790000000000106c-0.16800000000000637,-0.2049999999999983,-0.34499999999999886,-0.40099999999999625,-0.5310000000000059,-0.5870000000000033l-55.998999999999995,-56.001999999999995c-1.447999999999979,-1.4480000000000004,-3.447999999999979,-2.343,-5.656999999999982,-2.343s-4.209000000000003,0.8950000000000031,-5.657000000000011,2.343l-55.998999999999995,55.998999999999995c-0.18700000000001182,0.1869999999999976,-0.36299999999999955,0.3830000000000098,-0.5310000000000059,0.5870000000000033Z" style="fill:none; stroke:black; vector-effect:non-scaling-stroke;stroke-width:4px;" id="e5_shape" transform="matrix(1.78908 0 0 1.78908 582.044 62.5814)"/></svg>